# xmcd
#
# Track frame offsets: 
#        150
#        16510
#        39067
#        51207
#        66959
#        81822
#        94309
#        110988
#        129701
#        141780
#        159474
#        184286
#        198153
#        213159
#        228265
#
# Disc length: 3268 seconds
#
# Revision: 0
# Processed by: cddbd v1.5.2PL0 Copyright (c) Steve Scherf et al.
# Submitted via: ExactAudioCopy v1.3
#
DISCID=c80cc20f
DTITLE=Pazur - Wspomnienie
DYEAR=2013
DGENRE=Blues
TTITLE0=Czy mnie jeszcze pamiętasz
TTITLE1=Pamiętam ten dzień
TTITLE2=Domek bez adresu
TTITLE3=Wspomnienie
TTITLE4=Włóczęga
TTITLE5=Płonie stodoła
TTITLE6=Klęcząc przed tobą
TTITLE7=Wiem, że nie wrócisz
TTITLE8=Jaki kolor wybrać chcesz
TTITLE9=Nim przyjdzie wiosna
TTITLE10=Pod papugami
TTITLE11=Obok nas
TTITLE12=Sen o Warszawie
TTITLE13=Jeszcze swój egzamin zdasz
TTITLE14=Dziwny jest ten świat
EXTD=
EXTT0=
EXTT1=
EXTT2=
EXTT3=
EXTT4=
EXTT5=
EXTT6=
EXTT7=
EXTT8=
EXTT9=
EXTT10=
EXTT11=
EXTT12=
EXTT13=
EXTT14=
PLAYORDER=
